HIERARCHY
ROOT Hips
{
  OFFSET 5.80788e-005 67.184 3.4734
  CHANNELS 6 Xposition Yposition Zposition Zrotation Xrotation Yrotation
  JOINT Chest
  {
    OFFSET 0 8.7983 -4.7612
    CHANNELS 3 Zrotation Xrotation Yrotation
    JOINT Chest2
    {
      OFFSET 0 8.0291 0.4195
      CHANNELS 3 Zrotation Xrotation Yrotation
      JOINT Chest3
      {
        OFFSET 0 9.9351 -2.2114
        CHANNELS 3 Zrotation Xrotation Yrotation
        JOINT Neck
        {
          OFFSET 0 22.3885 -0.4656
          CHANNELS 3 Zrotation Xrotation Yrotation
          JOINT Head
          {
            OFFSET -0.0001 12.643 3.4389
            CHANNELS 3 Zrotation Xrotation Yrotation
            End Site
            {
              OFFSET 0.0001 17.6655 0.5274
            }
          }
        }
        JOINT LeftCollar
        {
          OFFSET 2.2603 21.606 7.4023
          CHANNELS 3 Zrotation Xrotation Yrotation
          JOINT LeftShoulder
          {
            OFFSET 13.5163 -1.1332 -5.0146
            CHANNELS 3 Zrotation Xrotation Yrotation
            JOINT LeftElbow
            {
              OFFSET -0.0995 -28.05 -0.2431
              CHANNELS 3 Zrotation Xrotation Yrotation
              JOINT LeftWrist
              {
                OFFSET 0.0679 -23.3996 -0.1402
                CHANNELS 3 Zrotation Xrotation Yrotation
                JOINT LeftFinger1
                {
                  OFFSET 0.7932 -9.069 2.5189
                  CHANNELS 3 Zrotation Xrotation Yrotation
                  JOINT LeftFinger11
                  {
                    OFFSET -0.8272 -3.3923 0.5977
                    CHANNELS 3 Zrotation Xrotation Yrotation
                    JOINT LeftFinger12
                    {
                      OFFSET -0.5649 -2.3158 0.4082
                      CHANNELS 3 Zrotation Xrotation Yrotation
                      End Site
                      {
                        OFFSET -0.4919 -1.6479 0.2673
                      }
                    }
                  }
                }
                JOINT LeftFinger2
                {
                  OFFSET 0.9159 -9.2044 0.2193
                  CHANNELS 3 Zrotation Xrotation Yrotation
                  JOINT LeftFinger21
                  {
                    OFFSET 0.0117 -4.1944 -0.0248
                    CHANNELS 3 Zrotation Xrotation Yrotation
                    JOINT LeftFinger22
                    {
                      OFFSET 0.0071 -2.3249 -0.0142
                      CHANNELS 3 Zrotation Xrotation Yrotation
                      End Site
                      {
                        OFFSET -0.1475 -2.0882 0.0028
                      }
                    }
                  }
                }
                JOINT LeftFinger3
                {
                  OFFSET 0.6113 -8.7231 -2.0637
                  CHANNELS 3 Zrotation Xrotation Yrotation
                  JOINT LeftFinger31
                  {
                    OFFSET -0.1927 -3.8059 -0.2383
                    CHANNELS 3 Zrotation Xrotation Yrotation
                    JOINT LeftFinger32
                    {
                      OFFSET -0.1091 -2.1688 -0.1362
                      CHANNELS 3 Zrotation Xrotation Yrotation
                      End Site
                      {
                        OFFSET -0.2358 -1.9176 -0.0906
                      }
                    }
                  }
                }
                JOINT LeftFinger4
                {
                  OFFSET -0.6151 -8.0947 -3.5641
                  CHANNELS 3 Zrotation Xrotation Yrotation
                  JOINT LeftFinger41
                  {
                    OFFSET -0.4882 -2.341 -0.6462
                    CHANNELS 3 Zrotation Xrotation Yrotation
                    JOINT LeftFinger42
                    {
                      OFFSET -0.3575 -1.7167 -0.4742
                      CHANNELS 3 Zrotation Xrotation Yrotation
                      End Site
                      {
                        OFFSET -0.4187 -1.5237 -0.3496
                      }
                    }
                  }
                }
                JOINT LeftFinger0
                {
                  OFFSET -1.42 -1.8761 1.4223
                  CHANNELS 3 Zrotation Xrotation Yrotation
                  JOINT LeftFinger01
                  {
                    OFFSET -1.1471 -3.4929 2.6334
                    CHANNELS 3 Zrotation Xrotation Yrotation
                    JOINT LeftFinger02
                    {
                      OFFSET -0.823 -2.3 1.6571
                      CHANNELS 3 Zrotation Xrotation Yrotation
                      End Site
                      {
                        OFFSET -0.5822 -1.6914 1.1582
                      }
                    }
                  }
                }
              }
            }
          }
        }
        JOINT RightCollar
        {
          OFFSET -2.2603 21.606 7.4023
          CHANNELS 3 Zrotation Xrotation Yrotation
          JOINT RightShoulder
          {
            OFFSET -13.5187 -1.1334 -5.0155
            CHANNELS 3 Zrotation Xrotation Yrotation
            JOINT RightElbow
            {
              OFFSET 0.0994 -28.0499 -0.2431
              CHANNELS 3 Zrotation Xrotation Yrotation
              JOINT RightWrist
              {
                OFFSET -0.0679 -23.3996 -0.1402
                CHANNELS 3 Zrotation Xrotation Yrotation
                JOINT RightFinger1
                {
                  OFFSET -0.7932 -9.0691 2.5189
                  CHANNELS 3 Zrotation Xrotation Yrotation
                  JOINT RightFinger11
                  {
                    OFFSET 0.8272 -3.3923 0.5977
                    CHANNELS 3 Zrotation Xrotation Yrotation
                    JOINT RightFinger12
                    {
                      OFFSET 0.565 -2.3158 0.4082
                      CHANNELS 3 Zrotation Xrotation Yrotation
                      End Site
                      {
                        OFFSET 0.4919 -1.6479 0.2673
                      }
                    }
                  }
                }
                JOINT RightFinger2
                {
                  OFFSET -0.916 -9.2044 0.2193
                  CHANNELS 3 Zrotation Xrotation Yrotation
                  JOINT RightFinger21
                  {
                    OFFSET -0.0117 -4.1944 -0.0248
                    CHANNELS 3 Zrotation Xrotation Yrotation
                    JOINT RightFinger22
                    {
                      OFFSET -0.0071 -2.3249 -0.0142
                      CHANNELS 3 Zrotation Xrotation Yrotation
                      End Site
                      {
                        OFFSET 0.1475 -2.0882 0.0028
                      }
                    }
                  }
                }
                JOINT RightFinger3
                {
                  OFFSET -0.6113 -8.7231 -2.0637
                  CHANNELS 3 Zrotation Xrotation Yrotation
                  JOINT RightFinger31
                  {
                    OFFSET 0.1927 -3.8059 -0.2383
                    CHANNELS 3 Zrotation Xrotation Yrotation
                    JOINT RightFinger32
                    {
                      OFFSET 0.1091 -2.1688 -0.1362
                      CHANNELS 3 Zrotation Xrotation Yrotation
                      End Site
                      {
                        OFFSET 0.2358 -1.9176 -0.0906
                      }
                    }
                  }
                }
                JOINT RightFinger4
                {
                  OFFSET 0.6151 -8.0947 -3.564
                  CHANNELS 3 Zrotation Xrotation Yrotation
                  JOINT RightFinger41
                  {
                    OFFSET 0.4882 -2.341 -0.6462
                    CHANNELS 3 Zrotation Xrotation Yrotation
                    JOINT RightFinger42
                    {
                      OFFSET 0.3574 -1.7166 -0.4742
                      CHANNELS 3 Zrotation Xrotation Yrotation
                      End Site
                      {
                        OFFSET 0.4187 -1.5237 -0.3496
                      }
                    }
                  }
                }
                JOINT RightFinger0
                {
                  OFFSET 1.4199 -1.8761 1.4221
                  CHANNELS 3 Zrotation Xrotation Yrotation
                  JOINT RightFinger01
                  {
                    OFFSET 1.1472 -3.4929 2.6336
                    CHANNELS 3 Zrotation Xrotation Yrotation
                    JOINT RightFinger02
                    {
                      OFFSET 0.8229 -2.3 1.6571
                      CHANNELS 3 Zrotation Xrotation Yrotation
                      End Site
                      {
                        OFFSET 0.5822 -1.6914 1.1582
                      }
                    }
                  }
                }
              }
            }
          }
        }
      }
    }
  }
  JOINT RightHip
  {
    OFFSET -9.412 3.9771 -0.7758
    CHANNELS 3 Zrotation Xrotation Yrotation
    JOINT RightKnee
    {
      OFFSET -0.7531 -40.938 0
      CHANNELS 3 Zrotation Xrotation Yrotation
      JOINT RightAnkle
      {
        OFFSET 0 -40.1986 0
        CHANNELS 3 Zrotation Xrotation Yrotation
        JOINT RightToe
        {
          OFFSET 0 -4.4182 9.239
          CHANNELS 3 Zrotation Xrotation Yrotation
          End Site
          {
            OFFSET 0 0 6.1981
          }
        }
      }
    }
  }
  JOINT LeftHip
  {
    OFFSET 9.4119 3.9773 -0.7758
    CHANNELS 3 Zrotation Xrotation Yrotation
    JOINT LeftKnee
    {
      OFFSET 0.7532 -40.9383 0
      CHANNELS 3 Zrotation Xrotation Yrotation
      JOINT LeftAnkle
      {
        OFFSET 0 -40.1986 0
        CHANNELS 3 Zrotation Xrotation Yrotation
        JOINT LeftToe
        {
          OFFSET 0 -4.4182 9.239
          CHANNELS 3 Zrotation Xrotation Yrotation
          End Site
          {
            OFFSET 0 0 6.1981
          }
        }
      }
    }
  }
}
MOTION
Frames:	4
Frame Time:	0.0333333
39.8694 -5.9023 49.3526 5.93762e-008 76.2989 -1.11538e-007 -0.456111 2.861 -0.194663 -0.904168 5.72344 -0.367172 -0.90417 5.72345 -0.367173 -0.00223652 -2.95529 -44.0018 -2.34041 -16.7863 -31.2042 -3.94439 8.42785 -19.1202 60.5739 4.22229 62.4155 41.8078 -47.49 22.1486 30.0075 -23.9826 35.7651 7.95139e-016 0 -5.96354e-016 7.95139e-016 6.36111e-015 -1.98785e-016 1.19271e-015 0 -7.95139e-016 7.95139e-016 0 -5.96354e-016 -0.0128246 0.00232498 8.30825e-005 -3.97569e-016 3.18055e-015 5.96354e-016 7.95139e-016 0 -5.96354e-016 -0.0160616 0.00299831 0.000857105 1.19271e-015 3.18055e-015 -1.98785e-016 7.95139e-016 0 -5.96354e-016 -0.0125965 0.00311781 0.00283249 3.97569e-016 0 -9.93923e-016 7.95139e-016 0 -5.96354e-016 7.95139e-016 6.36111e-015 -1.98785e-016 1.19271e-015 0 -7.95139e-016 50.1723 -13.694 10.2878 -55.9294 -1.11143 -52.7972 -37.0799 -39.831 -22.2365 -8.04543 -31.6347 -14.4299 3.88388e-008 8.54799e-007 4.24339e-007 3.47873e-016 -1.59028e-015 -2.38542e-015 -1.94194e-008 8.54799e-007 -2.1217e-007 3.88388e-008 8.54799e-007 4.24339e-007 0.0129572 0.00231786 -8.77631e-005 -4.96962e-016 1.69616e-006 -1.59028e-015 3.88388e-008 8.54799e-007 4.24339e-007 0.0163437 0.00303542 -0.000874541 -4.43651e-007 1.24556e-006 -1.75155e-007 3.88388e-008 8.54799e-007 4.24339e-007 0.0145792 0.00367888 -0.00326109 -3.88181e-008 3.35746e-009 -4.2434e-007 3.88388e-008 8.54799e-007 4.24339e-007 3.47873e-016 -1.59028e-015 -2.38542e-015 -1.94194e-008 8.54799e-007 -2.1217e-007 -6.07674 9.57718 -52.3363 7.19614 20.9131 -22.1395 -13.7917 39.8338 9.10611 1.89919e-006 3.20527e-006 2.8256e-006 3.58939 13.2003 47.4738 -4.82411 6.6887 20.6047 5.89355 38.5674 -4.96758 -5.61986e-006 -3.24466e-006 1.37953e-006 
39.8687 -5.87835 49.3325 3.17013e-007 76.5239 -3.54273e-007 -0.443563 2.67489 -0.195548 -0.879411 5.35119 -0.37094 -0.879413 5.3512 -0.370941 -0.00229546 -2.54255 -44.0018 -2.14431 -16.6735 -30.7678 -4.27868 7.76809 -19.0129 60.5739 4.22229 62.4155 41.7842 -47.4702 22.1322 28.919 -24.7482 35.04 -7.95139e-016 0 -1.98785e-016 -4.41391e-032 -3.18055e-015 -7.95139e-016 -2.20695e-032 -3.18055e-015 -3.97569e-016 -7.95139e-016 0 -1.98785e-016 -0.0128258 0.0023203 8.45886e-005 1.59028e-015 9.54166e-015 -5.96354e-016 -7.95139e-016 0 -1.98785e-016 -0.0160373 0.00300018 0.000856407 -1.19271e-015 0 -3.97569e-015 -7.95139e-016 0 -1.98785e-016 -0.01261 0.00313485 0.00283908 -1.19271e-015 -6.36111e-015 -1.19271e-015 -7.95139e-016 0 -1.98785e-016 -4.41391e-032 -3.18055e-015 -7.95139e-016 -2.20695e-032 -3.18055e-015 -3.97569e-016 50.0491 -13.4273 9.17017 -55.8373 -1.76831 -53.0196 -37.4812 -39.9693 -22.5587 -7.08856 -31.764 -13.5957 6.55156e-006 7.50284e-007 -5.78673e-007 -6.55156e-006 -7.50284e-007 5.78673e-007 -7.76722e-008 8.46313e-007 -8.48674e-007 6.55156e-006 7.50284e-007 -5.78673e-007 0.0129375 0.00231343 -8.64847e-005 -7.76495e-008 8.46314e-007 -8.48677e-007 6.55156e-006 7.50284e-007 -5.78673e-007 0.0163233 0.00303237 -0.000873857 -9.70524e-008 4.18028e-007 -1.06085e-006 6.55156e-006 7.50284e-007 -5.78673e-007 0.0145586 0.00367333 -0.00325742 -1.16446e-007 -6.90561e-009 -1.27301e-006 6.55156e-006 7.50284e-007 -5.78673e-007 -6.55156e-006 -7.50284e-007 5.78673e-007 -7.76722e-008 8.46313e-007 -8.48674e-007 -6.00623 9.15923 -51.5895 7.19644 20.9157 -22.1124 -12.9198 39.9995 8.05524 -1.26586e-005 5.78e-006 4.2165e-007 3.51537 12.9417 47.3757 -4.82401 6.75023 20.6062 5.88002 38.536 -4.96351 -4.96533e-006 -1.02265e-005 -4.68831e-006 
39.8681 -5.85431 49.3125 0 76.749 -0 -0.430962 2.48902 -0.196576 -0.854576 4.97945 -0.374918 -0.854576 4.97945 -0.374918 -0.00239762 -2.12962 -44.0018 -1.94921 -16.5593 -30.3321 -4.6112 7.1081 -18.9097 60.5738 4.22233 62.4155 41.7607 -47.4503 22.1158 27.8137 -25.5006 34.2948 3.97569e-016 9.54166e-015 -1.98785e-016 0 9.54166e-015 -0 7.95139e-016 6.36111e-015 1.59028e-015 3.97569e-016 9.54166e-015 -1.98785e-016 -0.0128233 0.00232373 7.91321e-005 -1.59028e-015 -6.36111e-015 -3.37934e-015 3.97569e-016 9.54166e-015 -1.98785e-016 -0.0160411 0.00299737 0.00085171 -2.8955e-006 -4.62972e-006 -1.802e-006 3.97569e-016 9.54166e-015 -1.98785e-016 -0.0125867 0.00312128 0.00281531 -2.38542e-015 2.22639e-014 -5.96354e-016 3.97569e-016 9.54166e-015 -1.98785e-016 0 9.54166e-015 -0 7.95139e-016 6.36111e-015 1.59028e-015 49.9314 -13.1583 8.05464 -55.7474 -2.42325 -53.2408 -37.8838 -40.1072 -22.8842 -6.12855 -31.8812 -12.7583 -1.49089e-016 7.95139e-016 -0 -9.93923e-016 7.95139e-016 -3.97569e-016 -1.98785e-016 7.95139e-016 -3.97569e-016 -1.49089e-016 7.95139e-016 -0 0.0129497 0.00231507 -8.70328e-005 1.39522e-007 -7.34706e-007 -1.07471e-006 -1.49089e-016 7.95139e-016 -0 0.0163494 0.0030367 -0.000874241 -4.96962e-017 1.59028e-015 7.95139e-016 -1.49089e-016 7.95139e-016 -0 0.0145852 0.00367988 -0.003263 7.95139e-016 1.59028e-015 1.59028e-015 -1.49089e-016 7.95139e-016 -0 -9.93923e-016 7.95139e-016 -3.97569e-016 -1.98785e-016 7.95139e-016 -3.97569e-016 -5.93047 8.74221 -50.8432 7.19685 20.9188 -22.0852 -12.0421 40.1524 6.99873 1.66281e-005 1.22772e-006 -6.11163e-006 3.42456 12.6997 47.2805 -4.82497 6.76676 20.6064 5.87584 38.5252 -4.96217 -9.80775e-006 1.37045e-006 5.63041e-006 
39.8675 -5.83018 49.2926 -4.48483e-007 76.9741 3.59312e-007 -0.418335 2.30359 -0.197721 -0.829711 4.60855 -0.379048 -0.829713 4.60856 -0.379049 -0.00247139 -1.71685 -44.0017 -1.75516 -16.4437 -29.897 -4.94195 6.44757 -18.8106 60.5739 4.22228 62.4155 41.7372 -47.4304 22.0994 26.6916 -26.2392 33.5295 3.97569e-016 6.36111e-015 5.96354e-016 3.97569e-016 3.18055e-015 3.97569e-016 -3.97569e-016 3.18055e-015 1.98785e-016 3.97569e-016 6.36111e-015 5.96354e-016 -0.0128153 0.00234302 8.99158e-005 7.95139e-016 3.18055e-015 -3.37934e-015 3.97569e-016 6.36111e-015 5.96354e-016 -0.0160331 0.00299577 0.000863301 3.97569e-016 9.54166e-015 1.98785e-015 3.97569e-016 6.36111e-015 5.96354e-016 -0.0125574 0.00312102 0.00282058 3.97569e-016 0 -3.97569e-016 3.97569e-016 6.36111e-015 5.96354e-016 3.97569e-016 3.18055e-015 3.97569e-016 -3.97569e-016 3.18055e-015 1.98785e-016 49.8193 -12.8873 6.94173 -55.659 -3.07552 -53.4611 -38.2875 -40.2452 -23.2135 -5.16589 -31.9866 -11.9179 -9.44227e-016 -1.59028e-015 -3.97569e-016 -1.93951e-008 8.5145e-007 -2.12172e-007 -1.54058e-015 0 1.19271e-015 -9.44227e-016 -1.59028e-015 -3.97569e-016 0.012944 0.00231651 -8.62266e-005 1.2921e-015 0 -7.95139e-016 -9.44227e-016 -1.59028e-015 -3.97569e-016 0.01633 0.00303725 -0.00087376 6.09975e-006 6.87878e-008 -3.39069e-007 -9.44227e-016 -1.59028e-015 -3.97569e-016 0.0145851 0.00368062 -0.00326345 6.95746e-016 -1.59028e-015 -0 -9.44227e-016 -1.59028e-015 -3.97569e-016 -1.93951e-008 8.5145e-007 -2.12172e-007 -1.54058e-015 0 1.19271e-015 -5.84953 8.32551 -50.0974 7.1968 20.923 -22.058 -11.159 40.2925 5.93709 2.21802e-007 -6.83402e-006 3.33621e-006 3.33378 12.457 47.1849 -4.82556 6.7846 20.6067 5.87148 38.5139 -4.96076 -8.59702e-007 3.52229e-006 3.42295e-006 
